<svg width="161" height="44" viewBox="0 0 161 44" fill="none" xmlns="http://www.w3.org/2000/svg">
<path d="M15.3346 6.33398L2.66797 13.0007V15.6673H28.0013V13.0007M21.3346 18.334V27.6673H25.3346V18.334M2.66797 34.334H28.0013V30.334H2.66797M13.3346 18.334V27.6673H17.3346V18.334M5.33464 18.334V27.6673H9.33464V18.334H5.33464Z" fill="#303030"/>
<path d="M46.418 16.148C47.486 16.148 48.38 16.25 49.1 16.454C49.832 16.658 50.378 16.994 50.738 17.462C51.11 17.93 51.296 18.554 51.296 19.334C51.296 19.838 51.2 20.288 51.008 20.684C50.828 21.068 50.552 21.392 50.18 21.656C49.82 21.908 49.376 22.082 48.848 22.178V22.268C49.388 22.352 49.874 22.508 50.306 22.736C50.75 22.964 51.098 23.288 51.35 23.708C51.602 24.128 51.728 24.674 51.728 25.346C51.728 26.126 51.548 26.792 51.188 27.344C50.828 27.884 50.312 28.298 49.64 28.586C48.98 28.862 48.188 29 47.264 29H42.746V16.148H46.418ZM46.742 21.62C47.846 21.62 48.602 21.446 49.01 21.098C49.418 20.738 49.622 20.21 49.622 19.514C49.622 18.806 49.37 18.302 48.866 18.002C48.374 17.69 47.582 17.534 46.49 17.534H44.366V21.62H46.742ZM44.366 22.97V27.632H46.958C48.098 27.632 48.89 27.41 49.334 26.966C49.778 26.522 50 25.94 50 25.22C50 24.764 49.898 24.368 49.694 24.032C49.502 23.696 49.172 23.438 48.704 23.258C48.248 23.066 47.624 22.97 46.832 22.97H44.366ZM58.071 19.19C59.247 19.19 60.117 19.448 60.681 19.964C61.245 20.48 61.527 21.302 61.527 22.43V29H60.375L60.069 27.632H59.997C59.721 27.98 59.433 28.274 59.133 28.514C58.845 28.742 58.509 28.91 58.125 29.018C57.753 29.126 57.297 29.18 56.757 29.18C56.181 29.18 55.659 29.078 55.191 28.874C54.735 28.67 54.375 28.358 54.111 27.938C53.847 27.506 53.715 26.966 53.715 26.318C53.715 25.358 54.093 24.62 54.849 24.104C55.605 23.576 56.769 23.288 58.341 23.24L59.979 23.186V22.61C59.979 21.806 59.805 21.248 59.457 20.936C59.109 20.624 58.617 20.468 57.981 20.468C57.477 20.468 56.997 20.546 56.541 20.702C56.085 20.846 55.659 21.014 55.263 21.206L54.777 20.018C55.197 19.79 55.695 19.598 56.271 19.442C56.847 19.274 57.447 19.19 58.071 19.19ZM58.539 24.338C57.339 24.386 56.505 24.578 56.037 24.914C55.581 25.25 55.353 25.724 55.353 26.336C55.353 26.876 55.515 27.272 55.839 27.524C56.175 27.776 56.601 27.902 57.117 27.902C57.933 27.902 58.611 27.68 59.151 27.236C59.691 26.78 59.961 26.084 59.961 25.148V24.284L58.539 24.338ZM69.3309 19.172C70.4829 19.172 71.3529 19.454 71.9409 20.018C72.5289 20.57 72.8229 21.47 72.8229 22.718V29H71.2569V22.826C71.2569 22.046 71.0829 21.464 70.7349 21.08C70.3869 20.696 69.8409 20.504 69.0969 20.504C68.0289 20.504 67.2909 20.804 66.8829 21.404C66.4749 22.004 66.2709 22.868 66.2709 23.996V29H64.6869V19.352H65.9649L66.1989 20.666H66.2889C66.5049 20.33 66.7689 20.054 67.0809 19.838C67.4049 19.61 67.7589 19.442 68.1429 19.334C68.5269 19.226 68.9229 19.172 69.3309 19.172ZM77.5598 22.466C77.5598 22.658 77.5478 22.91 77.5238 23.222C77.5118 23.534 77.4998 23.804 77.4878 24.032H77.5598C77.6318 23.936 77.7398 23.798 77.8838 23.618C78.0278 23.438 78.1718 23.258 78.3158 23.078C78.4718 22.886 78.6038 22.73 78.7118 22.61L81.7898 19.352H83.6438L79.7378 23.474L83.9138 29H82.0058L78.6578 24.5L77.5598 25.454V29H75.9938V15.32H77.5598V22.466ZM94.9288 29H93.3088V17.57H89.2948V16.148H98.9248V17.57H94.9288V29ZM104.43 19.172C104.61 19.172 104.802 19.184 105.006 19.208C105.222 19.22 105.408 19.244 105.564 19.28L105.366 20.738C105.21 20.702 105.036 20.672 104.844 20.648C104.664 20.624 104.49 20.612 104.322 20.612C103.95 20.612 103.596 20.69 103.26 20.846C102.924 21.002 102.624 21.224 102.36 21.512C102.096 21.788 101.886 22.124 101.73 22.52C101.586 22.916 101.514 23.36 101.514 23.852V29H99.9303V19.352H101.226L101.406 21.116H101.478C101.682 20.756 101.928 20.432 102.216 20.144C102.504 19.844 102.834 19.61 103.206 19.442C103.578 19.262 103.986 19.172 104.43 19.172ZM110.848 19.19C112.024 19.19 112.894 19.448 113.458 19.964C114.022 20.48 114.304 21.302 114.304 22.43V29H113.152L112.846 27.632H112.774C112.498 27.98 112.21 28.274 111.91 28.514C111.622 28.742 111.286 28.91 110.902 29.018C110.53 29.126 110.074 29.18 109.534 29.18C108.958 29.18 108.436 29.078 107.968 28.874C107.512 28.67 107.152 28.358 106.888 27.938C106.624 27.506 106.492 26.966 106.492 26.318C106.492 25.358 106.87 24.62 107.626 24.104C108.382 23.576 109.546 23.288 111.118 23.24L112.756 23.186V22.61C112.756 21.806 112.582 21.248 112.234 20.936C111.886 20.624 111.394 20.468 110.758 20.468C110.254 20.468 109.774 20.546 109.318 20.702C108.862 20.846 108.436 21.014 108.04 21.206L107.554 20.018C107.974 19.79 108.472 19.598 109.048 19.442C109.624 19.274 110.224 19.19 110.848 19.19ZM111.316 24.338C110.116 24.386 109.282 24.578 108.814 24.914C108.358 25.25 108.13 25.724 108.13 26.336C108.13 26.876 108.292 27.272 108.616 27.524C108.952 27.776 109.378 27.902 109.894 27.902C110.71 27.902 111.388 27.68 111.928 27.236C112.468 26.78 112.738 26.084 112.738 25.148V24.284L111.316 24.338ZM122.108 19.172C123.26 19.172 124.13 19.454 124.718 20.018C125.306 20.57 125.6 21.47 125.6 22.718V29H124.034V22.826C124.034 22.046 123.86 21.464 123.512 21.08C123.164 20.696 122.618 20.504 121.874 20.504C120.806 20.504 120.068 20.804 119.66 21.404C119.252 22.004 119.048 22.868 119.048 23.996V29H117.464V19.352H118.742L118.976 20.666H119.066C119.282 20.33 119.546 20.054 119.858 19.838C120.182 19.61 120.536 19.442 120.92 19.334C121.304 19.226 121.7 19.172 122.108 19.172ZM135.053 26.336C135.053 26.96 134.897 27.482 134.585 27.902C134.273 28.322 133.829 28.64 133.253 28.856C132.677 29.072 131.993 29.18 131.201 29.18C130.529 29.18 129.947 29.126 129.455 29.018C128.975 28.91 128.549 28.76 128.177 28.568V27.128C128.561 27.32 129.023 27.5 129.563 27.668C130.115 27.824 130.673 27.902 131.237 27.902C132.041 27.902 132.623 27.776 132.983 27.524C133.343 27.26 133.523 26.912 133.523 26.48C133.523 26.24 133.457 26.024 133.325 25.832C133.193 25.64 132.953 25.448 132.605 25.256C132.269 25.064 131.783 24.848 131.147 24.608C130.523 24.368 129.989 24.128 129.545 23.888C129.101 23.648 128.759 23.36 128.519 23.024C128.279 22.688 128.159 22.256 128.159 21.728C128.159 20.912 128.489 20.282 129.149 19.838C129.821 19.394 130.697 19.172 131.777 19.172C132.365 19.172 132.911 19.232 133.415 19.352C133.931 19.46 134.411 19.616 134.855 19.82L134.315 21.08C134.051 20.96 133.769 20.858 133.469 20.774C133.181 20.678 132.887 20.606 132.587 20.558C132.287 20.498 131.981 20.468 131.669 20.468C131.021 20.468 130.523 20.576 130.175 20.792C129.839 20.996 129.671 21.278 129.671 21.638C129.671 21.902 129.749 22.13 129.905 22.322C130.061 22.502 130.319 22.682 130.679 22.862C131.051 23.03 131.543 23.234 132.155 23.474C132.767 23.702 133.289 23.936 133.721 24.176C134.153 24.416 134.483 24.71 134.711 25.058C134.939 25.394 135.053 25.82 135.053 26.336ZM142.01 20.576H139.58V29H137.996V20.576H136.304V19.838L137.996 19.298V18.74C137.996 17.912 138.116 17.24 138.356 16.724C138.608 16.208 138.968 15.83 139.436 15.59C139.904 15.35 140.468 15.23 141.128 15.23C141.512 15.23 141.86 15.266 142.172 15.338C142.496 15.398 142.772 15.47 143 15.554L142.586 16.796C142.394 16.736 142.172 16.676 141.92 16.616C141.668 16.556 141.41 16.526 141.146 16.526C140.618 16.526 140.222 16.706 139.958 17.066C139.706 17.414 139.58 17.966 139.58 18.722V19.352H142.01V20.576ZM147.658 19.172C148.486 19.172 149.194 19.352 149.782 19.712C150.382 20.072 150.838 20.582 151.15 21.242C151.474 21.89 151.636 22.652 151.636 23.528V24.482H145.03C145.054 25.574 145.33 26.408 145.858 26.984C146.398 27.548 147.148 27.83 148.108 27.83C148.72 27.83 149.26 27.776 149.728 27.668C150.208 27.548 150.7 27.38 151.204 27.164V28.55C150.712 28.766 150.226 28.922 149.746 29.018C149.266 29.126 148.696 29.18 148.036 29.18C147.124 29.18 146.314 28.994 145.606 28.622C144.91 28.25 144.364 27.698 143.968 26.966C143.584 26.222 143.392 25.316 143.392 24.248C143.392 23.192 143.566 22.286 143.914 21.53C144.274 20.774 144.772 20.192 145.408 19.784C146.056 19.376 146.806 19.172 147.658 19.172ZM147.64 20.468C146.884 20.468 146.284 20.714 145.84 21.206C145.408 21.686 145.15 22.358 145.066 23.222H149.98C149.98 22.67 149.896 22.19 149.728 21.782C149.56 21.374 149.302 21.056 148.954 20.828C148.618 20.588 148.18 20.468 147.64 20.468ZM158.772 19.172C158.952 19.172 159.144 19.184 159.348 19.208C159.564 19.22 159.75 19.244 159.906 19.28L159.708 20.738C159.552 20.702 159.378 20.672 159.186 20.648C159.006 20.624 158.832 20.612 158.664 20.612C158.292 20.612 157.938 20.69 157.602 20.846C157.266 21.002 156.966 21.224 156.702 21.512C156.438 21.788 156.228 22.124 156.072 22.52C155.928 22.916 155.856 23.36 155.856 23.852V29H154.272V19.352H155.568L155.748 21.116H155.82C156.024 20.756 156.27 20.432 156.558 20.144C156.846 19.844 157.176 19.61 157.548 19.442C157.92 19.262 158.328 19.172 158.772 19.172Z" fill="#303030"/>
</svg>
