<svg width="34" height="33" viewBox="0 0 34 33" fill="none" xmlns="http://www.w3.org/2000/svg">
<path d="M1 1H5.61709C6.52651 1 7.32144 1.61355 7.55184 2.4933L12.9304 23.0304C13.1608 23.9102 13.9558 24.5237 14.8652 24.5237H30.2105" stroke="#303030" stroke-width="2" stroke-linecap="round"/>
<path d="M12.5 19.9354H27.0646C27.9471 19.9354 28.7253 19.357 28.9797 18.5119L32.2248 7.73264C32.6112 6.44902 31.6502 5.1561 30.3097 5.1561H13.6264" stroke="#303030" stroke-width="2" stroke-linecap="round"/>
<path d="M18.5258 29.5781C18.5258 31.4681 17.0335 33.0003 15.1926 33.0003C13.3517 33.0003 11.8594 31.4681 11.8594 29.5781C11.8594 27.688 13.3517 26.1559 15.1926 26.1559C17.0335 26.1559 18.5258 27.688 18.5258 29.5781ZM13.9001 29.5781C13.9001 30.311 14.4787 30.9051 15.1926 30.9051C15.9064 30.9051 16.4851 30.311 16.4851 29.5781C16.4851 28.8452 15.9064 28.251 15.1926 28.251C14.4787 28.251 13.9001 28.8452 13.9001 29.5781Z" fill="#303030"/>
<path d="M30.848 29.5781C30.848 31.4681 29.3557 33.0003 27.5148 33.0003C25.674 33.0003 24.1816 31.4681 24.1816 29.5781C24.1816 27.688 25.674 26.1559 27.5148 26.1559C29.3557 26.1559 30.848 27.688 30.848 29.5781ZM26.2223 29.5781C26.2223 30.311 26.801 30.9051 27.5148 30.9051C28.2287 30.9051 28.8074 30.311 28.8074 29.5781C28.8074 28.8452 28.2287 28.251 27.5148 28.251C26.801 28.251 26.2223 28.8452 26.2223 29.5781Z" fill="#303030"/>
<path d="M14.0098 9.96056H27.1545M15.0454 14.7022H25.5081" stroke="#303030" stroke-linecap="round"/>
</svg>
