<svg width="24" height="24" viewBox="0 0 24 24" fill="none" xmlns="http://www.w3.org/2000/svg">
<g id="bi:filetype-docx" clip-path="url(#clip0_114_3599)">
<path id="Vector" fill-rule="evenodd" clip-rule="evenodd" d="M21 6.75V16.5H19.5V6.75H16.5C15.9033 6.75 15.331 6.51295 14.909 6.09099C14.4871 5.66903 14.25 5.09674 14.25 4.5V1.5H6C5.60218 1.5 5.22064 1.65804 4.93934 1.93934C4.65804 2.22064 4.5 2.60218 4.5 3V16.5H3V3C3 2.20435 3.31607 1.44129 3.87868 0.87868C4.44129 0.316071 5.20435 0 6 0L14.25 0L21 6.75ZM10.7415 21.282V20.499C10.7522 20.1697 10.6924 19.8418 10.566 19.5375C10.4664 19.3002 10.2982 19.0981 10.083 18.957C9.87194 18.8263 9.62771 18.7591 9.3795 18.7635C9.13019 18.7595 8.88497 18.8272 8.673 18.9585C8.45953 19.1001 8.29256 19.3015 8.193 19.5375C8.06659 19.8418 8.00675 20.1697 8.0175 20.499V21.282C8.0175 21.666 8.0775 21.987 8.193 22.2435C8.29231 22.4801 8.4593 22.682 8.673 22.824C8.8861 22.9521 9.13093 23.0176 9.3795 23.013C9.62712 23.0175 9.87097 22.952 10.083 22.824C10.298 22.6833 10.4662 22.4817 10.566 22.245C10.6922 21.9401 10.752 21.6118 10.7415 21.282ZM11.946 20.508V21.2775C11.946 21.84 11.844 22.3275 11.6385 22.737C11.4444 23.1316 11.1367 23.4591 10.755 23.6775C10.374 23.8935 9.915 24.0015 9.3795 24.0015C8.89928 24.0141 8.42394 23.9025 7.9995 23.6775C7.6174 23.4596 7.30959 23.132 7.116 22.737C6.90091 22.2812 6.7956 21.7813 6.8085 21.2775V20.508C6.8085 19.9395 6.912 19.452 7.116 19.0455C7.3215 18.6345 7.6155 18.321 8.001 18.105C8.3865 17.8845 8.847 17.775 9.381 17.775C9.9165 17.775 10.374 17.8845 10.755 18.105C11.139 18.324 11.433 18.639 11.64 19.05C11.844 19.4565 11.946 19.9425 11.946 20.508ZM1.5 23.8875V17.889H3.6885C4.2975 17.889 4.8 18.006 5.196 18.2415C5.592 18.4755 5.886 18.8145 6.0795 19.2615C6.2745 19.7055 6.3735 20.244 6.3735 20.8725C6.3735 21.5055 6.276 22.0485 6.0795 22.4985C5.883 22.95 5.5845 23.2935 5.187 23.532C4.791 23.769 4.2915 23.8875 3.6885 23.8875H1.5ZM3.531 18.8565H2.685V22.917H3.5295C3.807 22.917 4.0485 22.875 4.254 22.794C4.45158 22.7147 4.62449 22.5842 4.755 22.416C4.887 22.245 4.9845 22.035 5.049 21.783C5.12136 21.4927 5.15565 21.1942 5.151 20.895C5.151 20.445 5.091 20.067 4.974 19.7655C4.87733 19.4859 4.69056 19.2464 4.443 19.0845C4.206 18.9315 3.9015 18.8565 3.528 18.8565H3.531ZM13.665 20.5305C13.665 20.1585 13.716 19.8405 13.8195 19.581C13.9083 19.3421 14.0653 19.1345 14.271 18.984C14.4813 18.8428 14.7303 18.7704 14.9835 18.777C15.2085 18.777 15.408 18.825 15.5805 18.9225C15.7501 19.0126 15.8917 19.1475 15.99 19.3125C16.0945 19.486 16.1562 19.6819 16.17 19.884H17.3175V19.7745C17.3075 19.4982 17.2403 19.227 17.1199 18.9781C16.9996 18.7291 16.8289 18.5079 16.6185 18.3285C16.4026 18.1457 16.1529 18.0071 15.8835 17.9205C15.5908 17.8213 15.2835 17.7722 14.9745 17.775C14.442 17.775 13.9845 17.886 13.608 18.1095C13.233 18.3315 12.948 18.648 12.7515 19.059C12.555 19.4685 12.456 19.959 12.456 20.526V21.273C12.456 21.8415 12.5535 22.329 12.747 22.737C12.942 23.1435 13.2285 23.457 13.6035 23.6775C13.9785 23.8935 14.436 24.0015 14.9745 24.0015C15.414 24.0015 15.807 23.9205 16.152 23.7555C16.497 23.5905 16.773 23.3655 16.9785 23.0745C17.1854 22.7766 17.303 22.4259 17.3175 22.0635V21.9495H16.17C16.1565 22.143 16.0963 22.3304 15.9945 22.4955C15.8938 22.6539 15.7523 22.7824 15.585 22.8675C15.3978 22.9586 15.1916 23.0039 14.9835 22.9995C14.7302 23.0071 14.4805 22.9387 14.2665 22.803C14.0615 22.6561 13.9057 22.4506 13.8195 22.2135C13.7093 21.9125 13.6569 21.5934 13.665 21.273V20.5305ZM21.303 17.8905H22.644L20.7315 20.8995L22.6125 23.8875H21.2505L19.9755 21.765H19.923L18.645 23.8875H17.352L19.212 20.865L17.37 17.889H18.768L20.016 20.0475H20.0685L21.303 17.889V17.8905Z" fill="#0076E1"/>
</g>
<defs>
<clipPath id="clip0_114_3599">
<rect width="24" height="24" fill="white"/>
</clipPath>
</defs>
</svg>
