<svg width="14" height="14" viewBox="0 0 14 14" fill="none" xmlns="http://www.w3.org/2000/svg">
<path d="M7.00004 0.333008C3.32004 0.333008 0.333374 3.31967 0.333374 6.99967C0.333374 10.6797 3.32004 13.6663 7.00004 13.6663C10.68 13.6663 13.6667 10.6797 13.6667 6.99967C13.6667 3.31967 10.68 0.333008 7.00004 0.333008ZM7.00004 7.66634C6.63337 7.66634 6.33337 7.36634 6.33337 6.99967V4.33301C6.33337 3.96634 6.63337 3.66634 7.00004 3.66634C7.36671 3.66634 7.66671 3.96634 7.66671 4.33301V6.99967C7.66671 7.36634 7.36671 7.66634 7.00004 7.66634ZM7.66671 10.333H6.33337V8.99967H7.66671V10.333Z" fill="#FF0000"/>
</svg>
