<svg width="20" height="18" viewBox="0 0 20 18" fill="none" xmlns="http://www.w3.org/2000/svg">
<path d="M7.15625 4.06641H9.03262V12.6561C9.03262 12.7678 9.12402 12.8592 9.23574 12.8592H10.7592C10.8709 12.8592 10.9623 12.7678 10.9623 12.6561V4.06641H12.8438C13.0139 4.06641 13.1078 3.8709 13.0037 3.73887L10.16 0.138483C10.141 0.114205 10.1167 0.0945706 10.089 0.0810675C10.0613 0.0675644 10.0308 0.0605469 10 0.0605469C9.96917 0.0605469 9.93875 0.0675644 9.91103 0.0810675C9.88332 0.0945706 9.85904 0.114205 9.84004 0.138483L6.99629 3.73634C6.89219 3.87091 6.98613 4.06641 7.15625 4.06641ZM19.293 11.8943H17.7695C17.6578 11.8943 17.5664 11.9857 17.5664 12.0975V16.0076H2.43359V12.0975C2.43359 11.9857 2.34219 11.8943 2.23047 11.8943H0.707031C0.595312 11.8943 0.503906 11.9857 0.503906 12.0975V17.1248C0.503906 17.5742 0.866992 17.9373 1.31641 17.9373H18.6836C19.133 17.9373 19.4961 17.5742 19.4961 17.1248V12.0975C19.4961 11.9857 19.4047 11.8943 19.293 11.8943Z" fill="#303030" fill-opacity="0.4"/>
</svg>
