<svg width="20" height="20" viewBox="0 0 20 20" fill="none" xmlns="http://www.w3.org/2000/svg">
<path d="M12.25 13.5C12.4489 13.5 12.6397 13.579 12.7803 13.7197C12.921 13.8603 13 14.0511 13 14.25C13 14.4489 12.921 14.6397 12.7803 14.7803C12.6397 14.921 12.4489 15 12.25 15H7.75C7.55109 15 7.36032 14.921 7.21967 14.7803C7.07902 14.6397 7 14.4489 7 14.25C7 14.0511 7.07902 13.8603 7.21967 13.7197C7.36032 13.579 7.55109 13.5 7.75 13.5H12.25ZM14.25 9.25C14.4489 9.25 14.6397 9.32902 14.7803 9.46967C14.921 9.61032 15 9.80109 15 10C15 10.1989 14.921 10.3897 14.7803 10.5303C14.6397 10.671 14.4489 10.75 14.25 10.75H5.75C5.55109 10.75 5.36032 10.671 5.21967 10.5303C5.07902 10.3897 5 10.1989 5 10C5 9.80109 5.07902 9.61032 5.21967 9.46967C5.36032 9.32902 5.55109 9.25 5.75 9.25H14.25ZM16.25 5C16.4489 5 16.6397 5.07902 16.7803 5.21967C16.921 5.36032 17 5.55109 17 5.75C17 5.94891 16.921 6.13968 16.7803 6.28033C16.6397 6.42098 16.4489 6.5 16.25 6.5H3.75C3.55109 6.5 3.36032 6.42098 3.21967 6.28033C3.07902 6.13968 3 5.94891 3 5.75C3 5.55109 3.07902 5.36032 3.21967 5.21967C3.36032 5.07902 3.55109 5 3.75 5H16.25Z" fill="black"/>
</svg>
