<svg width="34" height="24" viewBox="0 0 34 24" fill="none" xmlns="http://www.w3.org/2000/svg">
<path d="M4.20135 16.0169L4.16701 6.00858L2.50035 6.0143L2.53469 16.0226L0.0347031 16.0311L3.37942 19.3447L6.70133 16.0083L4.20135 16.0169Z" fill="#494949"/>
<path d="M29.5011 9.32519L29.5029 19.3335L31.1696 19.3332L31.1678 9.32489L33.6678 9.32443L30.3338 6.00004L27.0011 9.32565L29.5011 9.32519Z" fill="#494949"/>
<path d="M25.0316 7.71938L19.7816 2.46938C19.7119 2.39975 19.6292 2.34454 19.5381 2.3069C19.4471 2.26926 19.3495 2.24992 19.251 2.25H10.251C9.85315 2.25 9.47162 2.40804 9.19032 2.68934C8.90901 2.97064 8.75098 3.35218 8.75098 3.75V20.25C8.75098 20.6478 8.90901 21.0294 9.19032 21.3107C9.47162 21.592 9.85315 21.75 10.251 21.75H23.751C24.1488 21.75 24.5303 21.592 24.8116 21.3107C25.0929 21.0294 25.251 20.6478 25.251 20.25V8.25C25.2511 8.15148 25.2317 8.05391 25.1941 7.96286C25.1564 7.87182 25.1012 7.78908 25.0316 7.71938ZM20.001 4.81031L22.6907 7.5H20.001V4.81031ZM23.751 20.25H10.251V3.75H18.501V8.25C18.501 8.44891 18.58 8.63968 18.7206 8.78033C18.8613 8.92098 19.0521 9 19.251 9H23.751V20.25Z" fill="#494949"/>
<rect x="12.001" y="9" width="5" height="1" rx="0.5" fill="#494949"/>
<rect x="12.001" y="11" width="6" height="1" rx="0.5" fill="#494949"/>
<rect x="12.001" y="13" width="6" height="1" rx="0.5" fill="#494949"/>
<rect x="12.001" y="15" width="6" height="1" rx="0.5" fill="#494949"/>
</svg>
