<svg width="18" height="14" viewBox="0 0 18 14" fill="none" xmlns="http://www.w3.org/2000/svg">
<g clip-path="url(#clip0_938_6)">
<path d="M15.666 3.66536L8.99935 7.83203L2.33268 3.66536V1.9987L8.99935 6.16536L15.666 1.9987M15.666 0.332031H2.33268C1.40768 0.332031 0.666016 1.0737 0.666016 1.9987V11.9987C0.666016 12.4407 0.84161 12.8646 1.15417 13.1772C1.46673 13.4898 1.89065 13.6654 2.33268 13.6654H15.666C16.108 13.6654 16.532 13.4898 16.8445 13.1772C17.1571 12.8646 17.3327 12.4407 17.3327 11.9987V1.9987C17.3327 1.55667 17.1571 1.13275 16.8445 0.820187C16.532 0.507626 16.108 0.332031 15.666 0.332031Z" fill="#ec853a"/>
</g>
<defs>
<clipPath id="clip0_938_6">
<rect width="18" height="14" fill="white"/>
</clipPath>
</defs>
</svg>
