<svg width="24" height="24" viewBox="0 0 24 24" fill="none" xmlns="http://www.w3.org/2000/svg">
<path d="M21.6008 8.80039H2.40078M21.6008 8.80039C22.0251 8.80039 22.4321 8.63182 22.7322 8.33176C23.0322 8.0317 23.2008 7.62474 23.2008 7.20039V4.00039C23.2008 3.57604 23.0322 3.16908 22.7322 2.86902C22.4321 2.56896 22.0251 2.40039 21.6008 2.40039H2.40078C1.97643 2.40039 1.56947 2.56896 1.26941 2.86902C0.969352 3.16908 0.800781 3.57604 0.800781 4.00039V7.20039C0.800781 7.62474 0.969352 8.0317 1.26941 8.33176C1.56947 8.63182 1.97643 8.80039 2.40078 8.80039M21.6008 8.80039C22.0251 8.80039 22.4321 8.96896 22.7322 9.26902C23.0322 9.56908 23.2008 9.97604 23.2008 10.4004V13.6004C23.2008 14.0247 23.0322 14.4317 22.7322 14.7318C22.4321 15.0318 22.0251 15.2004 21.6008 15.2004M2.40078 8.80039C1.97643 8.80039 1.56947 8.96896 1.26941 9.26902C0.969352 9.56908 0.800781 9.97604 0.800781 10.4004V13.6004C0.800781 14.0247 0.969352 14.4317 1.26941 14.7318C1.56947 15.0318 1.97643 15.2004 2.40078 15.2004M21.6008 15.2004H2.40078M21.6008 15.2004C22.0251 15.2004 22.4321 15.369 22.7322 15.669C23.0322 15.9691 23.2008 16.376 23.2008 16.8004V20.0004C23.2008 20.4247 23.0322 20.8317 22.7322 21.1318C22.4321 21.4318 22.0251 21.6004 21.6008 21.6004H2.40078C1.97643 21.6004 1.56947 21.4318 1.26941 21.1318C0.969352 20.8317 0.800781 20.4247 0.800781 20.0004V16.8004C0.800781 16.376 0.969352 15.9691 1.26941 15.669C1.56947 15.369 1.97643 15.2004 2.40078 15.2004M3.20078 5.60039H8.00078M3.20078 12.0004H8.00078M3.20078 18.4004H8.00078" stroke="black"/>
</svg>
