<svg width="18" height="18" viewBox="0 0 18 18" fill="none" xmlns="http://www.w3.org/2000/svg">
<path d="M9.16621 8.30664C9.10423 8.37794 9.07144 8.47 9.0744 8.56442C9.07736 8.65885 9.11586 8.74867 9.18218 8.81595C9.24851 8.88322 9.33778 8.92298 9.43215 8.92728C9.52652 8.93158 9.61904 8.9001 9.69121 8.83914L14.9412 3.58914V6.27414C14.9428 6.37311 14.9828 6.4676 15.0528 6.53759C15.1227 6.60759 15.2172 6.64759 15.3162 6.64914C15.4157 6.64914 15.511 6.60963 15.5814 6.53931C15.6517 6.46898 15.6912 6.3736 15.6912 6.27414V2.68164C15.6912 2.58218 15.6517 2.4868 15.5814 2.41648C15.511 2.34615 15.4157 2.30664 15.3162 2.30664H11.7237C11.6243 2.30664 11.5289 2.34615 11.4585 2.41648C11.3882 2.4868 11.3487 2.58218 11.3487 2.68164C11.3487 2.7811 11.3882 2.87648 11.4585 2.94681C11.5289 3.01713 11.6243 3.05664 11.7237 3.05664H14.4087L9.16621 8.30664Z" fill="#0076E1"/>
<path d="M13.4062 15.6937H4.59219C3.98569 15.6931 3.4042 15.4519 2.97534 15.023C2.54648 14.5942 2.30528 14.0127 2.30469 13.4062V4.59219C2.30528 3.98569 2.54648 3.4042 2.97534 2.97534C3.4042 2.54648 3.98569 2.30528 4.59219 2.30469H9.11319C9.21265 2.30469 9.30803 2.3442 9.37835 2.41452C9.44868 2.48485 9.48819 2.58023 9.48819 2.67969C9.48819 2.77914 9.44868 2.87453 9.37835 2.94485C9.30803 3.01518 9.21265 3.05469 9.11319 3.05469H4.59219C4.1846 3.05528 3.79388 3.21746 3.50567 3.50567C3.21746 3.79388 3.05528 4.1846 3.05469 4.59219V13.4062C3.05528 13.8138 3.21746 14.2045 3.50567 14.4927C3.79388 14.7809 4.1846 14.9431 4.59219 14.9437H13.4062C13.8138 14.9431 14.2045 14.7809 14.4927 14.4927C14.7809 14.2045 14.9431 13.8138 14.9437 13.4062V8.88594C14.9437 8.78648 14.9832 8.6911 15.0535 8.62077C15.1238 8.55045 15.2192 8.51094 15.3187 8.51094C15.4181 8.51094 15.5135 8.55045 15.5839 8.62077C15.6542 8.6911 15.6937 8.78648 15.6937 8.88594V13.4062C15.6931 14.0127 15.4519 14.5942 15.023 15.023C14.5942 15.4519 14.0127 15.6931 13.4062 15.6937Z" fill="#0076E1"/>
</svg>
