<svg width="22" height="23" viewBox="0 0 22 23" fill="none" xmlns="http://www.w3.org/2000/svg">
<path d="M11.0017 18.0687L6.06838 21.8354C5.82393 22.0354 5.55727 22.1296 5.26838 22.1181C4.97949 22.1074 4.72393 22.0243 4.50171 21.8687C4.27949 21.7132 4.10749 21.5021 3.98571 21.2354C3.86304 20.9688 3.85727 20.6799 3.96838 20.3687L5.86838 14.2021L1.03504 10.7688C0.768378 10.591 0.601711 10.3576 0.535045 10.0688C0.468378 9.77986 0.479489 9.5132 0.568378 9.26875C0.657267 9.02431 0.812822 8.80742 1.03504 8.61808C1.25727 8.42964 1.52393 8.33542 1.83504 8.33542H7.80171L9.73504 1.93542C9.84616 1.62431 10.0186 1.38519 10.2524 1.21808C10.4853 1.05186 10.735 0.96875 11.0017 0.96875C11.2684 0.96875 11.5182 1.05186 11.751 1.21808C11.9848 1.38519 12.1573 1.62431 12.2684 1.93542L14.2017 8.33542H20.1684C20.4795 8.33542 20.7462 8.42964 20.9684 8.61808C21.1906 8.80742 21.3462 9.02431 21.435 9.26875C21.5239 9.5132 21.535 9.77986 21.4684 10.0688C21.4017 10.3576 21.235 10.591 20.9684 10.7688L16.135 14.2021L18.035 20.3687C18.1462 20.6799 18.1408 20.9688 18.019 21.2354C17.8964 21.5021 17.7239 21.7132 17.5017 21.8687C17.2795 22.0243 17.0239 22.1074 16.735 22.1181C16.4462 22.1296 16.1795 22.0354 15.935 21.8354L11.0017 18.0687Z" fill="#FFC738"/>
</svg>
