<svg width="100" height="100" viewBox="0 0 100 100" fill="none" xmlns="http://www.w3.org/2000/svg">
<path d="M22.8217 18.5301C30.3824 11.9787 40.055 8.37866 50.0593 8.39262C73.0718 8.39262 91.7259 27.0468 91.7259 50.0593H83.3926C83.3931 43.5244 81.4728 37.1335 77.8704 31.6812C74.2679 26.2289 69.1423 21.9558 63.1308 19.3931C57.1194 16.8305 50.4872 16.0914 44.0591 17.2677C37.6309 18.444 31.6903 21.4839 26.9759 26.0093L22.8217 18.5301ZM77.2968 81.5885C69.7361 88.14 60.0635 91.74 50.0593 91.726C27.0468 91.726 8.39258 73.0719 8.39258 50.0593H16.7259C16.7254 56.5942 18.6457 62.9852 22.2481 68.4375C25.8506 73.8897 30.9762 78.1629 36.9877 80.7255C42.9991 83.2882 49.6313 84.0273 56.0594 82.851C62.4876 81.6746 68.4282 78.6348 73.1426 74.1094L77.2968 81.5885Z" fill="#09121F"/>
<path d="M74 50L87 74V50H74Z" fill="#09121F"/>
<path d="M100 50L87 74V50H100Z" fill="#09121F"/>
<path d="M0 51L13 27V51H0Z" fill="#09121F"/>
<path d="M26 51L13 27V51H26Z" fill="#09121F"/>
</svg>
