<svg width="19" height="21" viewBox="0 0 19 21" fill="none" xmlns="http://www.w3.org/2000/svg">
<path d="M3.24975 5C3.24975 3.80653 3.72386 2.66193 4.56777 1.81802C5.41168 0.974106 6.55628 0.5 7.74975 0.5C8.94322 0.5 10.0878 0.974106 10.9317 1.81802C11.7756 2.66193 12.2498 3.80653 12.2498 5C12.2498 5.19891 12.1707 5.38968 12.0301 5.53033C11.8894 5.67098 11.6987 5.75 11.4998 5.75C11.3008 5.75 11.1101 5.67098 10.9694 5.53033C10.8288 5.38968 10.7498 5.19891 10.7498 5C10.7498 4.20435 10.4337 3.44129 9.87107 2.87868C9.30846 2.31607 8.5454 2 7.74975 2C6.9541 2 6.19104 2.31607 5.62843 2.87868C5.06582 3.44129 4.74975 4.20435 4.74975 5C4.74975 5.19891 4.67073 5.38968 4.53008 5.53033C4.38943 5.67098 4.19866 5.75 3.99975 5.75C3.80084 5.75 3.61007 5.67098 3.46942 5.53033C3.32877 5.38968 3.24975 5.19891 3.24975 5ZM16.6776 10.25C15.8704 10.2875 15.2497 10.9831 15.2497 11.7903V12.4728C15.2524 12.6664 15.1816 12.8537 15.0517 12.9972C14.9217 13.1407 14.7423 13.2297 14.5494 13.2463C14.4468 13.2531 14.344 13.2387 14.2471 13.2041C14.1503 13.1694 14.0617 13.1153 13.9867 13.045C13.9117 12.9746 13.852 12.8896 13.8112 12.7952C13.7704 12.7008 13.7495 12.5991 13.7497 12.4963V10.2922C13.7497 9.485 13.1291 8.79219 12.3219 8.75187C12.1191 8.7421 11.9164 8.77361 11.7262 8.84449C11.5359 8.91536 11.362 9.02413 11.215 9.16421C11.068 9.30428 10.9509 9.47274 10.871 9.65938C10.791 9.84602 10.7498 10.047 10.7498 10.25V11.7247C10.7524 11.9182 10.6816 12.1056 10.5517 12.2491C10.4217 12.3926 10.2423 12.4816 10.0494 12.4981C9.94685 12.5049 9.84395 12.4906 9.74714 12.456C9.65034 12.4213 9.56168 12.3672 9.48669 12.2968C9.41169 12.2265 9.35196 12.1415 9.3112 12.0471C9.27044 11.9527 9.24952 11.8509 9.24975 11.7481V5.04219C9.24975 4.235 8.62912 3.54219 7.82194 3.50187C7.61912 3.4921 7.41644 3.52361 7.22616 3.59449C7.03588 3.66536 6.86197 3.77413 6.71498 3.91421C6.56798 4.05428 6.45095 4.22274 6.37098 4.40938C6.29101 4.59602 6.24977 4.79695 6.24975 5V16.2256C6.25203 16.407 6.19001 16.5833 6.0747 16.7234C5.95938 16.8634 5.79821 16.9581 5.61975 16.9906H5.6085C5.49662 17.0032 5.38354 16.9824 5.28345 16.9308C5.18337 16.8793 5.10076 16.7993 5.046 16.7009L3.07725 13.2847C2.67412 12.5853 1.78912 12.2937 1.071 12.6641C0.889536 12.7564 0.728758 12.8846 0.598458 13.041C0.468157 13.1975 0.371062 13.3788 0.313086 13.5739C0.25511 13.7691 0.237467 13.974 0.261231 14.1762C0.284994 14.3784 0.349668 14.5736 0.451312 14.75L3.35756 20.3797C3.42335 20.4918 3.51713 20.5848 3.62971 20.6497C3.74228 20.7146 3.8698 20.7492 3.99975 20.75H16.7497C16.8891 20.7501 17.0257 20.7114 17.1443 20.6382C17.2628 20.565 17.3586 20.4602 17.421 20.3356C17.4548 20.2681 18.2497 18.9237 18.2497 16.5247V11.75C18.25 11.5468 18.2089 11.3457 18.1291 11.1588C18.0492 10.9719 17.9322 10.8033 17.7852 10.663C17.6382 10.5227 17.4642 10.4138 17.2738 10.3428C17.0834 10.2718 16.8805 10.2402 16.6776 10.25Z" fill="white"/>
</svg>
