<svg width="16" height="16" viewBox="0 0 16 16" fill="#0076E1" xmlns="http://www.w3.org/2000/svg">
<path d="M8.78747 6.3426L6.49998 4.6251V11.3751L8.78747 9.6576L11 8.0001L8.78747 6.3426ZM8.78747 6.3426L6.49998 4.6251V11.3751L8.78747 9.6576L11 8.0001L8.78747 6.3426ZM8.78747 6.3426L6.49998 4.6251V11.3751L8.78747 9.6576L11 8.0001L8.78747 6.3426ZM7.24997 2.0526V0.537598C5.74248 0.687598 4.36998 1.2876 3.25998 2.1951L4.32498 3.2676C5.17244 2.60601 6.18318 2.18617 7.24997 2.0526ZM3.26748 4.3251L2.19498 3.2601C1.26108 4.39754 0.684405 5.78574 0.537476 7.2501H2.05248C2.18748 6.1551 2.62248 5.1576 3.26748 4.3251ZM2.05248 8.7501H0.537476C0.687476 10.2576 1.28748 11.6301 2.19498 12.7401L3.26748 11.6676C2.60474 10.8237 2.18468 9.81498 2.05248 8.7501ZM3.25998 13.8051C4.39816 14.7378 5.78597 15.3143 7.24997 15.4626V13.9476C6.18318 13.814 5.17244 13.3942 4.32498 12.7326L3.25998 13.8051ZM15.5 8.0001C15.5 11.8701 12.56 15.0651 8.78747 15.4626V13.9476C11.7275 13.5576 14 11.0376 14 8.0001C14 4.9626 11.7275 2.4426 8.78747 2.0526V0.537598C12.56 0.935098 15.5 4.1301 15.5 8.0001Z" fill="#0076E1"/>
</svg>
