<svg width="24" height="24" viewBox="0 0 24 24" fill="none" xmlns="http://www.w3.org/2000/svg">
<g id="ic:baseline-slow-motion-video">
<path id="Vector" d="M13.0508 9.7898L10.0008 7.4998V16.4998L13.0508 14.2098L16.0008 11.9998L13.0508 9.7898ZM13.0508 9.7898L10.0008 7.4998V16.4998L13.0508 14.2098L16.0008 11.9998L13.0508 9.7898ZM13.0508 9.7898L10.0008 7.4998V16.4998L13.0508 14.2098L16.0008 11.9998L13.0508 9.7898ZM11.0008 4.0698V2.0498C8.99078 2.2498 7.16078 3.0498 5.68078 4.2598L7.10078 5.6898C8.23073 4.80769 9.57839 4.2479 11.0008 4.0698ZM5.69078 7.0998L4.26078 5.6798C3.01559 7.19639 2.24669 9.04733 2.05078 10.9998H4.07078C4.25078 9.5398 4.83078 8.20981 5.69078 7.0998ZM4.07078 12.9998H2.05078C2.25078 15.0098 3.05078 16.8398 4.26078 18.3198L5.69078 16.8898C4.80714 15.7645 4.24705 14.4196 4.07078 12.9998ZM5.68078 19.7398C7.19836 20.9833 9.04878 21.752 11.0008 21.9498V19.9298C9.57839 19.7517 8.23073 19.1919 7.10078 18.3098L5.68078 19.7398ZM22.0008 11.9998C22.0008 17.1598 18.0808 21.4198 13.0508 21.9498V19.9298C16.9708 19.4098 20.0008 16.0498 20.0008 11.9998C20.0008 7.9498 16.9708 4.5898 13.0508 4.0698V2.0498C18.0808 2.5798 22.0008 6.8398 22.0008 11.9998Z" fill="#0076E1"/>
</g>
</svg>
