<svg width="16" height="16" viewBox="0 0 16 16" fill="none" xmlns="http://www.w3.org/2000/svg">
<path d="M8.7876 6.34248L6.5001 4.62498V11.375L8.7876 9.65748L11.0001 7.99998L8.7876 6.34248ZM8.7876 6.34248L6.5001 4.62498V11.375L8.7876 9.65748L11.0001 7.99998L8.7876 6.34248ZM8.7876 6.34248L6.5001 4.62498V11.375L8.7876 9.65748L11.0001 7.99998L8.7876 6.34248ZM7.2501 2.05248V0.537476C5.7426 0.687476 4.3701 1.28748 3.2601 2.19498L4.3251 3.26748C5.17256 2.60589 6.1833 2.18604 7.2501 2.05248ZM3.2676 4.32498L2.1951 3.25998C1.26121 4.39742 0.684527 5.78562 0.537598 7.24998H2.0526C2.1876 6.15498 2.6226 5.15748 3.2676 4.32498ZM2.0526 8.74998H0.537598C0.687598 10.2575 1.2876 11.63 2.1951 12.74L3.2676 11.6675C2.60487 10.8235 2.1848 9.81486 2.0526 8.74998ZM3.2601 13.805C4.39828 14.7376 5.7861 15.3141 7.2501 15.4625V13.9475C6.1833 13.8139 5.17256 13.3941 4.3251 12.7325L3.2601 13.805ZM15.5001 7.99998C15.5001 11.87 12.5601 15.065 8.7876 15.4625V13.9475C11.7276 13.5575 14.0001 11.0375 14.0001 7.99998C14.0001 4.96248 11.7276 2.44248 8.7876 2.05248V0.537476C12.5601 0.934976 15.5001 4.12998 15.5001 7.99998Z" fill="#0076E1"/>
</svg>
